{
	"asset":{
		"generator":"Khronos glTF Blender I/O v4.3.47",
		"version":"2.0"
	},
	"scene":0,
	"scenes":[
		{
			"name":"Scene",
			"nodes":[
				6
			]
		}
	],
	"nodes":[
		{
			"mesh":0,
			"name":"Circle",
			"rotation":[
				0.7071068286895752,
				0,
				0,
				0.7071068286895752
			],
			"scale":[
				0.19559413194656372,
				0.29991284012794495,
				0.19559410214424133
			],
			"translation":[
				1.4372626543045044,
				-1.7388755083084106,
				0.8558754324913025
			]
		},
		{
			"mesh":1,
			"name":"Cube.003",
			"scale":[
				0.9781336188316345,
				0.9781336188316345,
				1.136303186416626
			],
			"translation":[
				1.0762492418289185,
				-0.06132463365793228,
				0
			]
		},
		{
			"mesh":2,
			"name":"Cylinder",
			"rotation":[
				0.7071068286895752,
				0,
				0,
				0.7071068286895752
			],
			"scale":[
				0.08073873072862625,
				0.6330305933952332,
				0.08073872327804565
			],
			"translation":[
				-1.0929136276245117,
				0.8829785585403442,
				0
			]
		},
		{
			"mesh":3,
			"name":"Cylinder.001",
			"rotation":[
				0.7071068286895752,
				0,
				0,
				0.7071068286895752
			],
			"scale":[
				0.06706737726926804,
				0.0538419708609581,
				0.06706736981868744
			],
			"translation":[
				1.4362529516220093,
				-1.727947473526001,
				0.9098413586616516
			]
		},
		{
			"mesh":4,
			"name":"Plane",
			"scale":[
				0.9781336188316345,
				0.9781336188316345,
				1.136303186416626
			],
			"translation":[
				1.4362530708312988,
				-1.647778868675232,
				0.8558756113052368
			]
		},
		{
			"mesh":5,
			"name":"Plane.001",
			"scale":[
				0.9604285359382629,
				0.9781336188316345,
				1.1053264141082764
			],
			"translation":[
				0.9130895733833313,
				-0.6737090945243835,
				0
			]
		},
		{
			"children":[
				0,
				1,
				2,
				3,
				4,
				5
			],
			"mesh":6,
			"name":"Cart",
			"rotation":[
				0.0643129050731659,
				-0.2975996732711792,
				0.0017240009037777781,
				0.9525205492973328
			],
			"scale":[
				0.7173965573310852,
				0.7173966765403748,
				0.617537260055542
			],
			"translation":[
				-0.331869900226593,
				0.2797733545303345,
				-0.21924805641174316
			]
		}
	],
	"materials":[
		{
			"doubleSided":true,
			"name":"Material.035",
			"pbrMetallicRoughness":{
				"baseColorFactor":[
					0.0008411440649069846,
					0.0008411440649069846,
					0.0008411440649069846,
					1
				],
				"metallicFactor":0,
				"roughnessFactor":0.5954545736312866
			}
		},
		{
			"doubleSided":true,
			"name":"wh.001",
			"pbrMetallicRoughness":{
				"metallicFactor":0,
				"roughnessFactor":0.5
			}
		},
		{
			"doubleSided":true,
			"name":"Material.061",
			"pbrMetallicRoughness":{
				"baseColorFactor":[
					1,
					0.09889188408851624,
					0,
					1
				],
				"metallicFactor":0,
				"roughnessFactor":0.5
			}
		}
	],
	"meshes":[
		{
			"name":"Circle",
			"primitives":[
				{
					"attributes":{
						"POSITION":0,
						"NORMAL":1,
						"TEXCOORD_0":2
					},
					"indices":3,
					"material":0
				}
			]
		},
		{
			"name":"Cube.004",
			"primitives":[
				{
					"attributes":{
						"POSITION":4,
						"NORMAL":5,
						"TEXCOORD_0":6
					},
					"indices":7,
					"material":1
				}
			]
		},
		{
			"name":"Cylinder",
			"primitives":[
				{
					"attributes":{
						"POSITION":8,
						"NORMAL":9,
						"TEXCOORD_0":10
					},
					"indices":11,
					"material":2
				}
			]
		},
		{
			"name":"Cylinder.001",
			"primitives":[
				{
					"attributes":{
						"POSITION":12,
						"NORMAL":13,
						"TEXCOORD_0":14
					},
					"indices":15,
					"material":0
				}
			]
		},
		{
			"name":"Plane.004",
			"primitives":[
				{
					"attributes":{
						"POSITION":16,
						"NORMAL":17,
						"TEXCOORD_0":18
					},
					"indices":19
				}
			]
		},
		{
			"name":"Plane.005",
			"primitives":[
				{
					"attributes":{
						"POSITION":20,
						"NORMAL":21,
						"TEXCOORD_0":22
					},
					"indices":23,
					"material":2
				}
			]
		},
		{
			"name":"Cube.001",
			"primitives":[
				{
					"attributes":{
						"POSITION":24,
						"NORMAL":25,
						"TEXCOORD_0":26
					},
					"indices":27,
					"material":1
				}
			]
		}
	],
	"accessors":[
		{
			"bufferView":0,
			"componentType":5126,
			"count":768,
			"max":[
				1.0000003576278687,
				0.22379836440086365,
				1
			],
			"min":[
				-7.921557426452637,
				-5.9312944412231445,
				-1.0000009536743164
			],
			"type":"VEC3"
		},
		{
			"bufferView":1,
			"componentType":5126,
			"count":768,
			"type":"VEC3"
		},
		{
			"bufferView":2,
			"componentType":5126,
			"count":768,
			"type":"VEC2"
		},
		{
			"bufferView":3,
			"componentType":5123,
			"count":4560,
			"type":"SCALAR"
		},
		{
			"bufferView":4,
			"componentType":5126,
			"count":731,
			"max":[
				0.6112643480300903,
				-0.777151346206665,
				0.845927357673645
			],
			"min":[
				-1.3544303178787231,
				-1.429635763168335,
				-0.845927357673645
			],
			"type":"VEC3"
		},
		{
			"bufferView":5,
			"componentType":5126,
			"count":731,
			"type":"VEC3"
		},
		{
			"bufferView":6,
			"componentType":5126,
			"count":731,
			"type":"VEC2"
		},
		{
			"bufferView":7,
			"componentType":5123,
			"count":4032,
			"type":"SCALAR"
		},
		{
			"bufferView":8,
			"componentType":5126,
			"count":130,
			"max":[
				1,
				1,
				1
			],
			"min":[
				-1,
				-1,
				-1
			],
			"type":"VEC3"
		},
		{
			"bufferView":9,
			"componentType":5126,
			"count":130,
			"type":"VEC3"
		},
		{
			"bufferView":10,
			"componentType":5126,
			"count":130,
			"type":"VEC2"
		},
		{
			"bufferView":11,
			"componentType":5123,
			"count":372,
			"type":"SCALAR"
		},
		{
			"bufferView":12,
			"componentType":5126,
			"count":1040,
			"max":[
				1,
				1,
				1.0000015497207642
			],
			"min":[
				-21.155797958374023,
				-34.79673385620117,
				-1.0000020265579224
			],
			"type":"VEC3"
		},
		{
			"bufferView":13,
			"componentType":5126,
			"count":1040,
			"type":"VEC3"
		},
		{
			"bufferView":14,
			"componentType":5126,
			"count":1040,
			"type":"VEC2"
		},
		{
			"bufferView":15,
			"componentType":5123,
			"count":2976,
			"type":"SCALAR"
		},
		{
			"bufferView":16,
			"componentType":5126,
			"count":2020,
			"max":[
				0.1834801286458969,
				0.19233572483062744,
				0.08490335941314697
			],
			"min":[
				-1.5654962062835693,
				-0.23218289017677307,
				-1.5913244485855103
			],
			"type":"VEC3"
		},
		{
			"bufferView":17,
			"componentType":5126,
			"count":2020,
			"type":"VEC3"
		},
		{
			"bufferView":18,
			"componentType":5126,
			"count":2020,
			"type":"VEC2"
		},
		{
			"bufferView":19,
			"componentType":5123,
			"count":11712,
			"type":"SCALAR"
		},
		{
			"bufferView":20,
			"componentType":5126,
			"count":105,
			"max":[
				1.0449204444885254,
				1.3033963441848755,
				0.8024554252624512
			],
			"min":[
				-1.2739806175231934,
				0.022955358028411865,
				-0.8024552464485168
			],
			"type":"VEC3"
		},
		{
			"bufferView":21,
			"componentType":5126,
			"count":105,
			"type":"VEC3"
		},
		{
			"bufferView":22,
			"componentType":5126,
			"count":105,
			"type":"VEC2"
		},
		{
			"bufferView":23,
			"componentType":5123,
			"count":510,
			"type":"SCALAR"
		},
		{
			"bufferView":24,
			"componentType":5126,
			"count":559,
			"max":[
				1.7387008666992188,
				0.9258071184158325,
				0.954414963722229
			],
			"min":[
				-1.1369609832763672,
				-0.8192256689071655,
				-0.9544147849082947
			],
			"type":"VEC3"
		},
		{
			"bufferView":25,
			"componentType":5126,
			"count":559,
			"type":"VEC3"
		},
		{
			"bufferView":26,
			"componentType":5126,
			"count":559,
			"type":"VEC2"
		},
		{
			"bufferView":27,
			"componentType":5123,
			"count":3024,
			"type":"SCALAR"
		}
	],
	"bufferViews":[
		{
			"buffer":0,
			"byteLength":9216,
			"byteOffset":0,
			"target":34962
		},
		{
			"buffer":0,
			"byteLength":9216,
			"byteOffset":9216,
			"target":34962
		},
		{
			"buffer":0,
			"byteLength":6144,
			"byteOffset":18432,
			"target":34962
		},
		{
			"buffer":0,
			"byteLength":9120,
			"byteOffset":24576,
			"target":34963
		},
		{
			"buffer":0,
			"byteLength":8772,
			"byteOffset":33696,
			"target":34962
		},
		{
			"buffer":0,
			"byteLength":8772,
			"byteOffset":42468,
			"target":34962
		},
		{
			"buffer":0,
			"byteLength":5848,
			"byteOffset":51240,
			"target":34962
		},
		{
			"buffer":0,
			"byteLength":8064,
			"byteOffset":57088,
			"target":34963
		},
		{
			"buffer":0,
			"byteLength":1560,
			"byteOffset":65152,
			"target":34962
		},
		{
			"buffer":0,
			"byteLength":1560,
			"byteOffset":66712,
			"target":34962
		},
		{
			"buffer":0,
			"byteLength":1040,
			"byteOffset":68272,
			"target":34962
		},
		{
			"buffer":0,
			"byteLength":744,
			"byteOffset":69312,
			"target":34963
		},
		{
			"buffer":0,
			"byteLength":12480,
			"byteOffset":70056,
			"target":34962
		},
		{
			"buffer":0,
			"byteLength":12480,
			"byteOffset":82536,
			"target":34962
		},
		{
			"buffer":0,
			"byteLength":8320,
			"byteOffset":95016,
			"target":34962
		},
		{
			"buffer":0,
			"byteLength":5952,
			"byteOffset":103336,
			"target":34963
		},
		{
			"buffer":0,
			"byteLength":24240,
			"byteOffset":109288,
			"target":34962
		},
		{
			"buffer":0,
			"byteLength":24240,
			"byteOffset":133528,
			"target":34962
		},
		{
			"buffer":0,
			"byteLength":16160,
			"byteOffset":157768,
			"target":34962
		},
		{
			"buffer":0,
			"byteLength":23424,
			"byteOffset":173928,
			"target":34963
		},
		{
			"buffer":0,
			"byteLength":1260,
			"byteOffset":197352,
			"target":34962
		},
		{
			"buffer":0,
			"byteLength":1260,
			"byteOffset":198612,
			"target":34962
		},
		{
			"buffer":0,
			"byteLength":840,
			"byteOffset":199872,
			"target":34962
		},
		{
			"buffer":0,
			"byteLength":1020,
			"byteOffset":200712,
			"target":34963
		},
		{
			"buffer":0,
			"byteLength":6708,
			"byteOffset":201732,
			"target":34962
		},
		{
			"buffer":0,
			"byteLength":6708,
			"byteOffset":208440,
			"target":34962
		},
		{
			"buffer":0,
			"byteLength":4472,
			"byteOffset":215148,
			"target":34962
		},
		{
			"buffer":0,
			"byteLength":6048,
			"byteOffset":219620,
			"target":34963
		}
	],
	"buffers":[
		{
			"byteLength":225668,
			"uri":"Cart.bin"
		}
	]
}
